<svg width="18" height="19" viewBox="0 0 18 19" fill="none" xmlns="http://www.w3.org/2000/svg">
<path d="M8.99976 1.86304C4.65093 1.86304 1.12476 5.38921 1.12476 9.73804C1.12476 14.0869 4.65093 17.613 8.99976 17.613C13.3486 17.613 16.8748 14.0869 16.8748 9.73804C16.8748 5.38921 13.3486 1.86304 8.99976 1.86304ZM8.99976 16.2771C5.38921 16.2771 2.46069 13.3486 2.46069 9.73804C2.46069 6.12749 5.38921 3.19897 8.99976 3.19897C12.6103 3.19897 15.5388 6.12749 15.5388 9.73804C15.5388 13.3486 12.6103 16.2771 8.99976 16.2771Z" fill="#184BFF"/>
<path d="M12.0707 11.9634L9.56401 10.1511V5.80054C9.56401 5.72319 9.50073 5.65991 9.42339 5.65991H8.57788C8.50054 5.65991 8.43726 5.72319 8.43726 5.80054V10.6416C8.43726 10.6873 8.45835 10.7294 8.49526 10.7558L11.4027 12.8757C11.466 12.9214 11.5539 12.9074 11.5996 12.8458L12.1023 12.1603C12.148 12.0953 12.1339 12.0074 12.0707 11.9634Z" fill="#184BFF"/>
</svg>
