<svg width="51" height="51" viewBox="0 0 51 51" fill="none" xmlns="http://www.w3.org/2000/svg">
<rect x="1.8186" y="1.73804" width="48" height="48" rx="24" stroke="#184BFF" stroke-width="2"/>
<path d="M26.9314 25.738L32.5711 19.0156C32.6656 18.9039 32.5861 18.7341 32.44 18.7341H30.7256C30.6246 18.7341 30.5279 18.7792 30.4613 18.8566L25.8099 24.4017L21.1586 18.8566C21.0941 18.7792 20.9974 18.7341 20.8943 18.7341H19.1799C19.0338 18.7341 18.9543 18.9039 19.0488 19.0156L24.6885 25.738L19.0488 32.4605C19.0276 32.4854 19.014 32.5159 19.0097 32.5482C19.0053 32.5806 19.0103 32.6136 19.0241 32.6432C19.0379 32.6729 19.0599 32.6979 19.0875 32.7154C19.1151 32.7329 19.1472 32.7421 19.1799 32.7419H20.8943C20.9953 32.7419 21.092 32.6968 21.1586 32.6195L25.8099 27.0744L30.4613 32.6195C30.5258 32.6968 30.6224 32.7419 30.7256 32.7419H32.44C32.5861 32.7419 32.6656 32.5722 32.5711 32.4605L26.9314 25.738Z" fill="#184BFF"/>
</svg>
