<svg width="26" height="26" viewBox="0 0 26 26" fill="none" xmlns="http://www.w3.org/2000/svg">
<path d="M24.5449 2.50922H19.2949V0.509216C19.2949 0.371716 19.1824 0.259216 19.0449 0.259216H17.2949C17.1574 0.259216 17.0449 0.371716 17.0449 0.509216V2.50922H9.04492V0.509216C9.04492 0.371716 8.93242 0.259216 8.79492 0.259216H7.04492C6.90742 0.259216 6.79492 0.371716 6.79492 0.509216V2.50922H1.54492C0.991797 2.50922 0.544922 2.95609 0.544922 3.50922V24.2592C0.544922 24.8123 0.991797 25.2592 1.54492 25.2592H24.5449C25.098 25.2592 25.5449 24.8123 25.5449 24.2592V3.50922C25.5449 2.95609 25.098 2.50922 24.5449 2.50922ZM23.2949 23.0092H2.79492V11.1342H23.2949V23.0092ZM2.79492 9.00922V4.75922H6.79492V6.25922C6.79492 6.39672 6.90742 6.50922 7.04492 6.50922H8.79492C8.93242 6.50922 9.04492 6.39672 9.04492 6.25922V4.75922H17.0449V6.25922C17.0449 6.39672 17.1574 6.50922 17.2949 6.50922H19.0449C19.1824 6.50922 19.2949 6.39672 19.2949 6.25922V4.75922H23.2949V9.00922H2.79492Z" fill="white"/>
</svg>
