<svg width="25" height="25" viewBox="0 0 25 25" fill="none" xmlns="http://www.w3.org/2000/svg">
<path d="M12.4071 0.468994C5.17796 0.468994 0.316315 5.33145 0.316315 12.5616C0.316315 19.7918 5.17796 24.6543 12.4071 24.6543C19.6363 24.6543 24.4979 19.7918 24.4979 12.5616C24.4979 5.33145 19.6363 0.468994 12.4071 0.468994ZM12.4071 23.4332C6.40522 23.4332 1.53708 18.5644 1.53708 12.5616C1.53708 6.55889 6.40522 1.69007 12.4071 1.69007C18.409 1.69007 23.2772 6.55889 23.2772 12.5616C23.2772 18.5644 18.409 23.4332 12.4071 23.4332ZM13.8009 11.8836L13.0587 11.7112V7.78632C14.1691 7.93829 14.8558 8.63384 14.9727 9.4872C14.9873 9.60409 15.0866 9.68885 15.2035 9.68885H16.5155C16.6529 9.68885 16.761 9.56902 16.7493 9.43167C16.5711 7.61097 15.072 6.44199 13.0704 6.24034V5.28469C13.0704 5.15611 12.9652 5.0509 12.8367 5.0509H12.0156C11.887 5.0509 11.7818 5.15611 11.7818 5.28469V6.24911C9.71299 6.45076 8.09417 7.59344 8.09417 9.72684C8.09417 11.7024 9.54935 12.6551 11.0776 13.0205L11.7993 13.2046V17.3749C10.5078 17.2025 9.78312 16.5128 9.63409 15.5835C9.61656 15.4724 9.51721 15.3906 9.40325 15.3906H8.05326C7.91592 15.3906 7.80781 15.5075 7.8195 15.6448C7.95099 17.2522 9.16949 18.7309 11.7701 18.9209V19.8386C11.7701 19.9671 11.8753 20.0724 12.0039 20.0724H12.8337C12.9623 20.0724 13.0675 19.9671 13.0675 19.8356L13.0617 18.9092C15.3496 18.7076 16.986 17.4831 16.986 15.2854C16.9831 13.2572 15.6944 12.3512 13.8009 11.8836ZM11.7964 11.4102C11.6328 11.3634 11.4954 11.3196 11.3581 11.2641C10.3705 10.9075 9.91169 10.3318 9.91169 9.58948C9.91169 8.52863 10.7153 7.92368 11.7964 7.78632V11.4102ZM13.0587 17.3837V13.4764C13.1493 13.5027 13.2311 13.5231 13.3159 13.5407C14.698 13.9615 15.1626 14.546 15.1626 15.4432C15.1626 16.5859 14.3035 17.2726 13.0587 17.3837Z" fill="#184BFF"/>
</svg>
