<svg width="24" height="23" viewBox="0 0 24 23" fill="none" xmlns="http://www.w3.org/2000/svg">
<path d="M10.3347 0.316612L10.3347 2.84786C10.3347 2.99161 10.3972 3.12911 10.5066 3.22599L18.391 10.0666L0.794097 10.0666C0.656597 10.0666 0.544097 10.1791 0.544097 10.3166L0.544097 12.1916C0.544097 12.3291 0.656597 12.4416 0.794097 12.4416L18.391 12.4416L10.5066 19.2822C10.3972 19.376 10.3347 19.5135 10.3347 19.6604L10.3347 22.1916C10.3347 22.4041 10.5878 22.5197 10.7472 22.3791L22.7003 12.0072C22.8085 11.9135 22.8953 11.7976 22.9547 11.6674C23.0142 11.5372 23.0449 11.3957 23.0449 11.2525C23.0449 11.1094 23.0142 10.9679 22.9547 10.8377C22.8953 10.7075 22.8085 10.5916 22.7003 10.4979L10.7472 0.129112C10.5847 -0.0115132 10.3347 0.104112 10.3347 0.316612Z" fill="white"/>
</svg>
