<svg width="27" height="28" viewBox="0 0 27 28" fill="none" xmlns="http://www.w3.org/2000/svg">
<path d="M10.5165 26.2838L10.5165 1.13894C10.5165 0.97996 10.3864 0.849881 10.2274 0.849881L8.05948 0.849881C7.90049 0.849881 7.77042 0.979959 7.77042 1.13894L7.77042 23.0065L1.15811 17.7926C0.97022 17.6444 0.688384 17.7781 0.688384 18.0202L0.688384 20.6398C0.688384 20.8169 0.767875 20.9831 0.908794 21.0951L8.64483 27.1943C9.40362 27.7905 10.5165 27.2521 10.5165 26.2838ZM19.0439 27.1546L19.0439 5.28699L25.6562 10.501C25.844 10.6491 26.1259 10.5154 26.1259 10.2733L26.1259 7.65369C26.1259 7.47664 26.0464 7.31043 25.9055 7.19842L18.1694 1.0992C17.4107 0.503007 16.2978 1.04139 16.2978 2.00613L16.2978 27.1546C16.2978 27.3136 16.4278 27.4436 16.5868 27.4436L18.7548 27.4436C18.9138 27.4436 19.0439 27.3136 19.0439 27.1546Z" fill="#184BFF"/>
</svg>
