<svg width="21" height="22" viewBox="0 0 21 22" fill="none" xmlns="http://www.w3.org/2000/svg">
<path d="M12.4132 10.9922L20.6163 1.21406C20.7538 1.05156 20.6382 0.804688 20.4257 0.804688H17.9319C17.7851 0.804688 17.6444 0.870312 17.5476 0.982812L10.7819 9.04844L4.01631 0.982812C3.92256 0.870312 3.78194 0.804688 3.63194 0.804688H1.13819C0.92569 0.804688 0.810065 1.05156 0.947565 1.21406L9.15069 10.9922L0.947565 20.7703C0.916764 20.8065 0.897003 20.8508 0.890629 20.8979C0.884256 20.9451 0.891536 20.993 0.911606 21.0361C0.931677 21.0792 0.963695 21.1157 1.00386 21.1411C1.04402 21.1666 1.09064 21.1799 1.13819 21.1797H3.63194C3.77881 21.1797 3.91944 21.1141 4.01631 21.0016L10.7819 12.9359L17.5476 21.0016C17.6413 21.1141 17.7819 21.1797 17.9319 21.1797H20.4257C20.6382 21.1797 20.7538 20.9328 20.6163 20.7703L12.4132 10.9922Z" fill="white"/>
</svg>
