<svg width="25" height="26" viewBox="0 0 25 26" fill="none" xmlns="http://www.w3.org/2000/svg">
    <path
        d="M6.26037 10.3405C6.26037 10.7126 6.40814 11.0694 6.67118 11.3325C6.93421 11.5955 7.29097 11.7433 7.66296 11.7433C8.03495 11.7433 8.3917 11.5955 8.65473 11.3325C8.91777 11.0694 9.06554 10.7126 9.06554 10.3405C9.06554 9.9685 8.91777 9.6117 8.65473 9.34862C8.3917 9.08555 8.03495 8.93776 7.66296 8.93776C7.29097 8.93776 6.93421 9.08555 6.67118 9.34862C6.40814 9.6117 6.26037 9.9685 6.26037 10.3405ZM16.546 10.3405C16.546 10.7126 16.6938 11.0694 16.9568 11.3325C17.2199 11.5955 17.5766 11.7433 17.9486 11.7433C18.3206 11.7433 18.6773 11.5955 18.9404 11.3325C19.2034 11.0694 19.3512 10.7126 19.3512 10.3405C19.3512 9.9685 19.2034 9.6117 18.9404 9.34862C18.6773 9.08555 18.3206 8.93776 17.9486 8.93776C17.5766 8.93776 17.2199 9.08555 16.9568 9.34862C16.6938 9.6117 16.546 9.9685 16.546 10.3405ZM12.8058 0.907349C5.57661 0.907349 0.714966 5.76981 0.714966 13C0.714966 20.2302 5.57661 25.0926 12.8058 25.0926C20.0349 25.0926 24.8966 20.2302 24.8966 13C24.8966 5.76981 20.0349 0.907349 12.8058 0.907349ZM20.4908 20.6861C19.4914 21.6855 18.3285 22.4688 17.034 23.0182C15.6986 23.5851 14.2756 23.8715 12.8058 23.8715C11.336 23.8715 9.91294 23.5851 8.57464 23.0182C7.28213 22.4722 6.10808 21.6802 5.11785 20.6861C4.1185 19.6866 3.33539 18.5234 2.78605 17.2288C2.22209 15.8932 1.93573 14.47 1.93573 13C1.93573 11.53 2.22209 10.1067 2.78897 8.76826C3.33483 7.47556 4.12679 6.30135 5.12077 5.31098C6.12011 4.3115 7.28309 3.52828 8.57756 2.97886C9.91294 2.41482 11.336 2.12842 12.8058 2.12842C14.2756 2.12842 15.6986 2.41482 17.0369 2.98178C18.3294 3.52772 19.5035 4.31979 20.4937 5.3139C21.493 6.31339 22.2762 7.47653 22.8255 8.77118C23.3895 10.1067 23.6758 11.53 23.6758 13C23.6758 14.47 23.3895 15.8932 22.8226 17.2317C22.2774 18.5239 21.4853 19.6973 20.4908 20.6861ZM17.2473 13.6137H15.8418C15.7191 13.6137 15.6139 13.7072 15.6051 13.83C15.4941 15.2766 14.2814 16.4193 12.8058 16.4193C11.3301 16.4193 10.1146 15.2766 10.0064 13.83C9.99768 13.7072 9.89248 13.6137 9.76976 13.6137H8.36425C8.33254 13.6137 8.30116 13.6201 8.27201 13.6325C8.24286 13.645 8.21655 13.6633 8.19468 13.6863C8.17281 13.7092 8.15584 13.7364 8.14481 13.7661C8.13377 13.7958 8.1289 13.8275 8.13049 13.8592C8.25906 16.3228 10.3074 18.2896 12.8058 18.2896C15.3041 18.2896 17.3525 16.3228 17.4811 13.8592C17.4826 13.8275 17.4778 13.7958 17.4667 13.7661C17.4557 13.7364 17.4387 13.7092 17.4169 13.6863C17.395 13.6633 17.3687 13.645 17.3395 13.6325C17.3104 13.6201 17.279 13.6137 17.2473 13.6137Z"
        fill="white" />
</svg>